<svg width="32" height="32" viewBox="0 0 32 32" fill="none" xmlns="http://www.w3.org/2000/svg">
<path d="M19.5821 15.9966C19.5821 15.716 19.4794 15.4834 19.2605 15.2644L13.9916 10.1118C13.8136 9.93392 13.6015 9.85181 13.3483 9.85181C12.8351 9.85181 12.4177 10.2555 12.4177 10.7687C12.4177 11.0219 12.5272 11.2546 12.712 11.4393L17.3924 15.9897L12.712 20.5538C12.5272 20.7386 12.4177 20.9644 12.4177 21.2244C12.4177 21.7376 12.8351 22.1482 13.3483 22.1482C13.6015 22.1482 13.8136 22.0592 13.9916 21.8813L19.2605 16.7288C19.4863 16.5098 19.5821 16.2771 19.5821 15.9966Z" fill="black"/>
</svg>
