<svg width="32" height="32" viewBox="0 0 32 32" fill="none" xmlns="http://www.w3.org/2000/svg">
<path d="M12.4177 15.9966C12.4177 15.716 12.5203 15.4834 12.7393 15.2644L18.0082 10.1118C18.1861 9.93392 18.3982 9.85181 18.6514 9.85181C19.1646 9.85181 19.582 10.2555 19.582 10.7687C19.582 11.0219 19.4725 11.2546 19.2878 11.4393L14.6074 15.9897L19.2878 20.5538C19.4725 20.7386 19.582 20.9644 19.582 21.2244C19.582 21.7376 19.1646 22.1482 18.6514 22.1482C18.3982 22.1482 18.1861 22.0592 18.0082 21.8813L12.7393 16.7288C12.5135 16.5098 12.4177 16.2771 12.4177 15.9966Z" fill="black"/>
</svg>
