<svg width="36" height="34" viewBox="0 0 36 34" fill="none" xmlns="http://www.w3.org/2000/svg">
<path fill-rule="evenodd" clip-rule="evenodd" d="M10.2929 11.2929C10.6834 10.9024 11.3166 10.9024 11.7071 11.2929L16.7071 16.2929C17.0976 16.6834 17.0976 17.3166 16.7071 17.7071L11.7071 22.7071C11.3166 23.0976 10.6834 23.0976 10.2929 22.7071C9.90237 22.3166 9.90237 21.6834 10.2929 21.2929L14.5858 17L10.2929 12.7071C9.90237 12.3166 9.90237 11.6834 10.2929 11.2929Z" fill="black"/>
<path fill-rule="evenodd" clip-rule="evenodd" d="M19.2929 11.2929C19.6834 10.9024 20.3166 10.9024 20.7071 11.2929L25.7071 16.2929C26.0976 16.6834 26.0976 17.3166 25.7071 17.7071L20.7071 22.7071C20.3166 23.0976 19.6834 23.0976 19.2929 22.7071C18.9024 22.3166 18.9024 21.6834 19.2929 21.2929L23.5858 17L19.2929 12.7071C18.9024 12.3166 18.9024 11.6834 19.2929 11.2929Z" fill="black"/>
</svg>
