<svg width="20" height="21" viewBox="0 0 20 21" fill="none" xmlns="http://www.w3.org/2000/svg">
<path d="M9.52447 3.96352C9.67415 3.50287 10.3259 3.50287 10.4755 3.96353L11.6839 7.68237C11.7508 7.88838 11.9428 8.02786 12.1594 8.02786H16.0696C16.554 8.02786 16.7554 8.64767 16.3635 8.93237L13.2001 11.2307C13.0248 11.3581 12.9515 11.5838 13.0184 11.7898L14.2268 15.5086C14.3764 15.9693 13.8492 16.3523 13.4573 16.0676L10.2939 13.7693C10.1186 13.6419 9.88135 13.6419 9.70611 13.7693L6.54267 16.0676C6.15081 16.3523 5.62357 15.9693 5.77325 15.5086L6.98157 11.7898C7.04851 11.5838 6.97518 11.3581 6.79994 11.2307L3.6365 8.93237C3.24464 8.64767 3.44603 8.02786 3.93039 8.02786H7.84062C8.05723 8.02786 8.24921 7.88838 8.31614 7.68237L9.52447 3.96352Z" fill="#D1FFE5"/>
</svg>
