<svg width="42" height="42" viewBox="0 0 42 42" fill="none" xmlns="http://www.w3.org/2000/svg">
<rect width="42" height="42" rx="4" fill="#3D3232"/>
<path d="M21 3C16.11 3 15.4995 3.0225 13.5795 3.108C11.6625 3.198 10.3575 3.4995 9.21 3.945C8.0265 4.404 7.0215 5.0205 6.021 6.021C5.0205 7.0215 4.4025 8.025 3.945 9.21C3.4995 10.3575 3.1965 11.6625 3.108 13.5795C3.018 15.4995 3 16.11 3 21C3 25.89 3.0225 26.5005 3.108 28.4205C3.198 30.336 3.4995 31.6425 3.945 32.79C4.39694 33.9913 5.1054 35.0796 6.021 35.979C6.91992 36.8952 8.00835 37.6038 9.21 38.055C10.359 38.499 11.664 38.8035 13.5795 38.892C15.4995 38.982 16.11 39 21 39C25.89 39 26.5005 38.9775 28.4205 38.892C30.336 38.802 31.6425 38.499 32.79 38.055C33.991 37.6025 35.0792 36.8941 35.979 35.979C36.8955 35.0803 37.6041 33.9918 38.055 32.79C38.499 31.6425 38.8035 30.336 38.892 28.4205C38.982 26.5005 39 25.89 39 21C39 16.11 38.9775 15.4995 38.892 13.5795C38.802 11.664 38.499 10.356 38.055 9.21C37.6028 8.00883 36.8944 6.92059 35.979 6.021C35.0807 5.10396 33.9921 4.39528 32.79 3.945C31.6425 3.4995 30.336 3.1965 28.4205 3.108C26.5005 3.018 25.89 3 21 3ZM21 6.24C25.8045 6.24 26.3775 6.264 28.275 6.3465C30.03 6.429 30.9825 6.72 31.6155 6.969C32.4585 7.2945 33.0555 7.6845 33.6885 8.313C34.317 8.943 34.707 9.5415 35.0325 10.3845C35.2785 11.0175 35.5725 11.97 35.652 13.725C35.7375 15.624 35.757 16.194 35.757 21C35.757 25.806 35.7345 26.3775 35.646 28.275C35.5545 30.03 35.262 30.9825 35.0145 31.6155C34.7217 32.3966 34.2614 33.1042 33.666 33.6885C33.0842 34.2844 32.3771 34.7435 31.596 35.0325C30.966 35.2785 29.9985 35.5725 28.2435 35.652C26.3325 35.7375 25.77 35.757 20.955 35.757C16.1385 35.757 15.576 35.7345 13.6665 35.646C11.91 35.5545 10.9425 35.262 10.3125 35.0145C9.53086 34.7253 8.82401 34.2645 8.244 33.666C7.64187 33.0881 7.18007 32.38 6.894 31.596C6.6465 30.966 6.3555 29.9985 6.264 28.2435C6.1965 26.3535 6.1725 25.77 6.1725 20.9775C6.1725 16.1835 6.1965 15.5985 6.264 13.686C6.3555 11.931 6.6465 10.965 6.894 10.335C7.209 9.48 7.6125 8.895 8.244 8.2635C8.8725 7.635 9.459 7.23 10.3125 6.9165C10.9425 6.6675 11.889 6.375 13.644 6.285C15.5565 6.2175 16.119 6.195 20.9325 6.195L21 6.24ZM21 11.757C19.7862 11.757 18.5843 11.9961 17.4629 12.4606C16.3414 12.9251 15.3225 13.6059 14.4642 14.4642C13.6059 15.3225 12.9251 16.3414 12.4606 17.4629C11.9961 18.5843 11.757 19.7862 11.757 21C11.757 22.2138 11.9961 23.4157 12.4606 24.5371C12.9251 25.6586 13.6059 26.6775 14.4642 27.5358C15.3225 28.3941 16.3414 29.0749 17.4629 29.5394C18.5843 30.0039 19.7862 30.243 21 30.243C23.4514 30.243 25.8024 29.2692 27.5358 27.5358C29.2692 25.8024 30.243 23.4514 30.243 21C30.243 18.5486 29.2692 16.1976 27.5358 14.4642C25.8024 12.7308 23.4514 11.757 21 11.757ZM21 27C17.685 27 15 24.315 15 21C15 17.685 17.685 15 21 15C24.315 15 27 17.685 27 21C27 24.315 24.315 27 21 27ZM32.769 11.3925C32.7482 11.9514 32.5115 12.4805 32.1087 12.8686C31.7059 13.2567 31.1683 13.4735 30.609 13.4735C30.0497 13.4735 29.5121 13.2567 29.1093 12.8686C28.7065 12.4805 28.4698 11.9514 28.449 11.3925C28.449 10.8196 28.6766 10.2702 29.0816 9.86515C29.4867 9.46007 30.0361 9.2325 30.609 9.2325C31.1819 9.2325 31.7313 9.46007 32.1364 9.86515C32.5414 10.2702 32.769 10.8196 32.769 11.3925Z" fill="#CC5907"/>
</svg>
