<svg width="36" height="34" viewBox="0 0 36 34" fill="none" xmlns="http://www.w3.org/2000/svg">
<path fill-rule="evenodd" clip-rule="evenodd" d="M16.7071 11.2929C17.0976 11.6834 17.0976 12.3166 16.7071 12.7071L12.4142 17L16.7071 21.2929C17.0976 21.6834 17.0976 22.3166 16.7071 22.7071C16.3166 23.0976 15.6834 23.0976 15.2929 22.7071L10.2929 17.7071C9.90237 17.3166 9.90237 16.6834 10.2929 16.2929L15.2929 11.2929C15.6834 10.9024 16.3166 10.9024 16.7071 11.2929Z" fill="black"/>
<path fill-rule="evenodd" clip-rule="evenodd" d="M25.7071 11.2929C26.0976 11.6834 26.0976 12.3166 25.7071 12.7071L21.4142 17L25.7071 21.2929C26.0976 21.6834 26.0976 22.3166 25.7071 22.7071C25.3166 23.0976 24.6834 23.0976 24.2929 22.7071L19.2929 17.7071C18.9024 17.3166 18.9024 16.6834 19.2929 16.2929L24.2929 11.2929C24.6834 10.9024 25.3166 10.9024 25.7071 11.2929Z" fill="black"/>
</svg>
