<svg width="23" height="23" viewBox="0 0 23 23" fill="none" xmlns="http://www.w3.org/2000/svg">
<rect width="22.6667" height="22.6667" rx="11.3333" fill="white"/>
<path fill-rule="evenodd" clip-rule="evenodd" d="M19.04 11.5161C19.04 10.9468 18.9889 10.3995 18.894 9.87402H11.3333V12.9793H15.6537C15.4676 13.9828 14.902 14.833 14.0518 15.4023V17.4165H16.6462C18.1642 16.0189 19.04 13.9609 19.04 11.5161Z" fill="#4285F4"/>
<path fill-rule="evenodd" clip-rule="evenodd" d="M11.3333 19.3614C13.5008 19.3614 15.318 18.6425 16.6462 17.4165L14.0518 15.4022C13.3329 15.8839 12.4134 16.1685 11.3333 16.1685C9.24241 16.1685 7.47265 14.7564 6.84137 12.8589H4.15936V14.9388C5.4803 17.5624 8.19515 19.3614 11.3333 19.3614Z" fill="#34A853"/>
<path fill-rule="evenodd" clip-rule="evenodd" d="M6.84142 12.859C6.68086 12.3773 6.58964 11.8628 6.58964 11.3337C6.58964 10.8046 6.68086 10.2901 6.84142 9.80844V7.72852H4.15941C3.61571 8.81227 3.30554 10.0383 3.30554 11.3337C3.30554 12.6291 3.61571 13.8552 4.15941 14.9389L6.84142 12.859Z" fill="#FFC41B"/>
<path fill-rule="evenodd" clip-rule="evenodd" d="M11.3333 6.49854C12.5119 6.49854 13.5701 6.90357 14.4021 7.69906L16.7046 5.39654C15.3143 4.10115 13.4971 3.30566 11.3333 3.30566C8.19515 3.30566 5.4803 5.10462 4.15936 7.72825L6.84137 9.80818C7.47265 7.9107 9.24241 6.49854 11.3333 6.49854Z" fill="#EA4335"/>
</svg>
