<svg width="42" height="42" viewBox="0 0 42 42" fill="none" xmlns="http://www.w3.org/2000/svg">
<rect width="42" height="42" rx="4" fill="#3D3232"/>
<path d="M38.9985 21.0007C38.9985 11.0583 30.9402 3 20.9992 3C11.0583 3 3 11.0583 3 21.0007C3 29.9831 9.58227 37.4294 18.1866 38.7795V26.203H13.6174V20.9992H18.1866V17.0346C18.1866 12.5224 20.8747 10.0308 24.9849 10.0308C26.9545 10.0308 29.0141 10.3818 29.0141 10.3818V14.8115H26.746C24.5109 14.8115 23.8134 16.199 23.8134 17.6226V21.0007H28.8056L28.0075 26.2045H23.8134V38.781C32.4177 37.4309 39 29.9846 39 21.0007H38.9985Z" fill="#CC5907"/>
</svg>
